Coordinates
nRows=15
nColumns=34

# SIMM Motion File Header:
name Coordinates
datacolumns 34
datarows 15
otherdata 1
range 0.30000000 0.31400000

Units are S.I. units (second, meters, Newtons, ...)
Angles are in degrees.

endheader
time	pelvis_tz	pelvis_tx	pelvis_ty	pelvis_tilt	pelvis_list	pelvis_rotation	hip_flexion_r	hip_adduction_r	hip_rotation_r	knee_r_tx	knee_r_ty	knee_angle_r	tib_pat_r_tx	tib_pat_r_ty	tib_pat_r_r1	ankle_angle_r	subtalar_angle_r	mtp_angle_r	hip_flexion_l	hip_adduction_l	hip_rotation_l	knee_l_tx	knee_l_ty	knee_angle_l	tib_pat_l_tx	tib_pat_l_ty	tib_pat_l_r1	ankle_angle_l	subtalar_angle_l	mtp_angle_l	lumbar_extension	lumbar_bending	lumbar_rotation
      0.30000000	     -0.24831110	      0.14736312	      0.93058489	     -1.69556495	      2.79114384	     -3.02711419	      2.00110349	     -0.42427945	     16.93128467	     -0.00406661	     -0.41351845	     -5.09902238	      0.04601996	     -0.02110479	      5.34975057	      8.18290585	     -0.00000000	      0.00000000	     17.51993374	      3.35663694	     -1.12367101	      0.00418206	     -0.42281551	    -58.48372498	      0.03601649	     -0.01913152	     17.36363715	      1.80174767	      0.00000000	      0.00000000	     -2.08937025	      0.82091669	      2.94469902
      0.30100000	     -0.24822336	      0.14829344	      0.93062716	     -1.68396798	      2.83232497	     -3.03891923	      1.91168363	     -0.46912087	     16.94089929	     -0.00407156	     -0.41351568	     -5.06501958	      0.04602443	     -0.02110630	      5.31890345	      8.22614960	     -0.00000000	      0.00000000	     17.61554458	      3.37899758	     -1.14828291	      0.00417278	     -0.42277935	    -58.34882286	      0.03604942	     -0.01913566	     17.36044191	      1.89059533	      0.00000000	      0.00000000	     -2.10935721	      0.76440092	      2.96376031
      0.30200000	     -0.24813741	      0.14922332	      0.93066773	     -1.67245542	      2.87286030	     -3.05039042	      1.82236761	     -0.51342593	     16.94982109	     -0.00407648	     -0.41351292	     -5.03112584	      0.04602887	     -0.02110781	      5.28808886	      8.26929554	     -0.00000000	      0.00000000	     17.71049143	      3.40102492	     -1.17235867	      0.00416323	     -0.42274257	    -58.21148027	      0.03608291	     -0.01913988	     17.35714924	      1.97786389	      0.00000000	      0.00000000	     -2.12933372	      0.70882778	      2.98219626
      0.30300000	     -0.24805327	      0.15015277	      0.93070656	     -1.66103211	      2.91273436	     -3.06152554	      1.73316131	     -0.55717657	     16.95805188	     -0.00408138	     -0.41351017	     -4.99734655	      0.04603327	     -0.02110931	      5.25731227	      8.31234859	     -0.00000000	      0.00000000	     17.80477727	      3.42270817	     -1.19588500	      0.00415340	     -0.42270519	    -58.07171674	      0.03611696	     -0.01914417	     17.35375724	      2.06355918	      0.00000000	      0.00000000	     -2.14929661	      0.65421751	      3.00001181
      0.30400000	     -0.24797096	      0.15108179	      0.93074364	     -1.64970289	      2.95193192	     -3.07232251	      1.64407062	     -0.60035493	     16.96559398	     -0.00408624	     -0.41350743	     -4.96368711	      0.04603764	     -0.02111079	      5.22657919	      8.35531379	     -0.00000000	      0.00000000	     17.89840505	      3.44403674	     -1.21884828	      0.00414329	     -0.42266722	    -57.92955140	      0.03615157	     -0.01914854	     17.35026392	      2.14768783	      0.00000000	      0.00000000	     -2.16924275	      0.60058996	      3.01721231
      0.30500000	     -0.24789050	      0.15201039	      0.93077893	     -1.63847254	      2.99043803	     -3.08277946	      1.55510146	     -0.64294337	     16.97245025	     -0.00409108	     -0.41350471	     -4.93015290	      0.04604197	     -0.02111227	      5.19589520	      8.39819635	     -0.00000000	      0.00000000	     17.99137773	      3.46500022	     -1.24123458	      0.00413290	     -0.42262867	    -57.78500300	      0.03618671	     -0.01915298	     17.34666728	      2.23025722	      0.00000000	      0.00000000	     -2.18916902	      0.54796458	      3.03380343
      0.30600000	     -0.24781190	      0.15293857	      0.93081242	     -1.62734585	      3.02823798	     -3.09289466	      1.46625977	     -0.68492441	     16.97862403	     -0.00409589	     -0.41350200	     -4.89674932	      0.04604627	     -0.02111373	      5.16526588	      8.44100158	     -0.00000000	      0.00000000	     18.08369823	      3.48558839	     -1.26302968	      0.00412223	     -0.42258953	    -57.63808986	      0.03622240	     -0.01915750	     17.34296524	      2.31127544	      0.00000000	      0.00000000	     -2.20907229	      0.49636046	      3.04979112
      0.30700000	     -0.24773519	      0.15386633	      0.93084408	     -1.61632754	      3.06531734	     -3.10266657	      1.37755148	     -0.72628078	     16.98411920	     -0.00410067	     -0.41349930	     -4.86348174	      0.04605054	     -0.02111518	      5.13469687	      8.48373495	     -0.00000000	      0.00000000	     18.17536947	      3.50579118	     -1.28421903	      0.00411126	     -0.42254983	    -57.48882988	      0.03625862	     -0.01916209	     17.33915568	      2.39075130	      0.00000000	      0.00000000	     -2.22894948	      0.44579631	      3.06518152
      0.30800000	     -0.24766037	      0.15479367	      0.93087388	     -1.60542230	      3.10166193	     -3.11209380	      1.28898250	     -0.76699540	     16.98894015	     -0.00410541	     -0.41349661	     -4.83035553	      0.04605477	     -0.02111662	      5.10419381	      8.52640207	     -0.00000000	      0.00000000	     18.26639431	      3.52559870	     -1.30478785	      0.00410001	     -0.42250957	    -57.33724056	      0.03629537	     -0.01916676	     17.33523641	      2.46869425	      0.00000000	      0.00000000	     -2.24879746	      0.39629050	      3.07998090
      0.30900000	     -0.24758746	      0.15572059	      0.93090181	     -1.59463474	      3.13725782	     -3.12117515	      1.20055874	     -0.80705138	     16.99309177	     -0.00411013	     -0.41349394	     -4.79737604	      0.04605896	     -0.02111805	      5.07376240	      8.56900869	     -0.00000000	      0.00000000	     18.35677560	      3.54500122	     -1.32472104	      0.00408845	     -0.42246874	    -57.18333893	      0.03633263	     -0.01917150	     17.33120520	      2.54511439	      0.00000000	      0.00000000	     -2.26861313	      0.34786102	      3.09419562
      0.31000000	     -0.24751648	      0.15664711	      0.93092784	     -1.58396944	      3.17209134	     -3.12990956	      1.11228605	     -0.84643203	     16.99657945	     -0.00411482	     -0.41349128	     -4.76454858	      0.04606312	     -0.02111947	      5.04340834	      8.61156069	     -0.00000000	      0.00000000	     18.44651612	      3.56398913	     -1.34400327	      0.00407660	     -0.42242738	    -57.02714159	      0.03637042	     -0.01917632	     17.32705976	      2.62002243	      0.00000000	      0.00000000	     -2.28839334	      0.30052551	      3.10783205
      0.31100000	     -0.24744743	      0.15757321	      0.93095194	     -1.57343089	      3.20614907	     -3.13829616	      1.02417029	     -0.88512084	     16.99940909	     -0.00411947	     -0.41348864	     -4.73187849	      0.04606724	     -0.02112087	      5.01313734	      8.65406409	     -0.00000000	      0.00000000	     18.53561860	      3.58255302	     -1.36261896	      0.00406444	     -0.42238547	    -56.86866469	      0.03640871	     -0.01918121	     17.32279774	      2.69342963	      0.00000000	      0.00000000	     -2.30813498	      0.25430127	      3.12089659
      0.31200000	     -0.24738034	      0.15849891	      0.93097409	     -1.56302351	      3.23941789	     -3.14633423	      0.93621726	     -0.92310156	     17.00158709	     -0.00412409	     -0.41348601	     -4.69937108	      0.04607132	     -0.02112226	      4.98295518	      8.69652505	     -0.00000000	      0.00000000	     18.62408572	      3.60068362	     -1.38055228	      0.00405198	     -0.42234302	    -56.70792392	      0.03644750	     -0.01918618	     17.31841673	      2.76534782	      0.00000000	      0.00000000	     -2.32783491	      0.20920517	      3.13339570
      0.31300000	     -0.24731520	      0.15942420	      0.93099427	     -1.55275165	      3.27188499	     -3.15402322	      0.84843274	     -0.96035818	     17.00312032	     -0.00412868	     -0.41348340	     -4.66703166	      0.04607537	     -0.02112364	      4.95286768	      8.73894988	     -0.00000000	      0.00000000	     18.71192009	      3.61837185	     -1.39778720	      0.00403920	     -0.42230006	    -56.54493452	      0.03648680	     -0.01919121	     17.31391427	      2.83578932	      0.00000000	      0.00000000	     -2.34749004	      0.16525371	      3.14533593
      0.31400000	     -0.24725204	      0.16034909	      0.93101245	     -1.54261958	      3.30353784	     -3.16136277	      0.76082247	     -0.99687495	     17.00401615	     -0.00413323	     -0.41348081	     -4.63486558	      0.04607937	     -0.02112501	      4.92288070	      8.78134502	     -0.00000000	      0.00000000	     18.79912424	      3.63560885	     -1.41430748	      0.00402611	     -0.42225657	    -56.37971126	      0.03652658	     -0.01919632	     17.30928784	      2.90476694	      0.00000000	      0.00000000	     -2.36709729	      0.12246293	      3.15672393
